<?xml version="1.0" encoding="utf-8"?>
<!-- Generator: Adobe Illustrator 27.5.0, SVG Export Plug-In . SVG Version: 6.00 Build 0)  -->
<svg version="1.1" id="Layer_1" xmlns="http://www.w3.org/2000/svg" xmlns:xlink="http://www.w3.org/1999/xlink" x="0px" y="0px"
	 viewBox="0 0 800 800" style="enable-background:new 0 0 800 800;" xml:space="preserve">
<rect x="27.038" y="112.053" style="fill:#FFFFFF;" width="740.365" height="571.604"/>
<g>
	<rect x="87.729" y="345.307" style="fill:#231F20;" width="615.113" height="9.186"/>
	<rect x="94.364" y="347.476" style="fill:#FFFFFF;" width="598.655" height="3.445"/>
	<rect x="88.751" y="314.686" style="opacity:0.15;fill:#5D5E5E;" width="613.115" height="6.548"/>
	<rect x="88.751" y="271.815" style="opacity:0.15;fill:#5D5E5E;" width="613.115" height="6.55"/>
	<path style="fill:#231F20;" d="M702.986,273.725l-615.648-1.913v-10.815l-14.582-15.484l321.707-93.67l0.252,0.074l321.613,93.324
		l-13.303,15.572L702.986,273.725z"/>
	<path style="fill:#FFFFFF;" d="M672.142,267.63l-554.084-1.722v-9.733l-13.124-13.937l289.536-84.303l0.228,0.067l289.453,83.991
		l-11.975,14.015L672.142,267.63z"/>
	<polygon style="fill:#231F20;" points="88.633,261.698 87.506,257.775 395.889,169.149 702.938,257.093 701.813,261.019 
		395.891,173.398 	"/>
	<polygon style="fill:#231F20;" points="153.911,261.046 153.46,259.583 398.816,184.185 643.109,259.004 642.66,260.467 
		398.816,185.786 	"/>
	<polygon style="fill:#231F20;" points="205.127,260.815 204.977,260.327 398.705,200.794 398.78,200.816 591.592,259.87 
		591.444,260.358 398.705,201.328 	"/>
	<rect x="87.389" y="259.566" style="fill:#231F20;" width="615.073" height="3.573"/>
	<path style="fill:#231F20;" d="M703.567,308.39H87.474v-37.426h616.093V308.39z M89.516,306.349h612.008v-33.343H89.516V306.349z"
		/>
	<path style="fill:#231F20;" d="M702.971,317.237H87.091c-2.677,0-4.848-2.171-4.848-4.849l0,0c0-2.678,2.171-4.849,4.848-4.849
		h615.88c2.679,0,4.849,2.171,4.849,4.849l0,0C707.82,315.066,705.65,317.237,702.971,317.237z"/>
	<path style="fill:#231F20;" d="M702.885,347.178H87.729v-36.065h615.156V347.178z M89.771,345.136h611.073v-31.982H89.771V345.136z
		"/>
	<path style="fill:#231F20;" d="M706.289,606.442H85.007v-15.651h621.282V606.442z M87.049,604.401h617.199v-11.568H87.049V604.401z
		"/>
	<path style="fill:#231F20;" d="M717.176,618.69H71.398v-13.609h645.778V618.69z M73.439,616.649h641.695v-9.527H73.439V616.649z"/>
	<path style="fill:#231F20;" d="M732.148,631.62H59.149v-13.609h672.998V631.62z M61.19,629.578h668.917v-9.527H61.19V629.578z"/>
	<path style="fill:#231F20;" d="M745.756,643.868H48.687v-13.61h697.069V643.868z M50.729,641.826h692.987V632.3H50.729V641.826z"/>
	<rect x="697.102" y="257.015" style="fill:#231F20;" width="5.869" height="15.055"/>
	<rect x="87.474" y="257.524" style="fill:#231F20;" width="7.146" height="13.78"/>
	<rect x="88.069" y="286.956" width="615.158" height="3.401"/>
	<rect x="88.069" y="297.163" width="615.158" height="3.402"/>
	<rect x="88.069" y="340.448" width="614.136" height="2.233"/>
	<rect x="88.069" y="334.323" width="614.262" height="2.232"/>
	<g>
		<path style="fill:#231F20;" d="M681.907,354.332c-6.576,0.009-13.153,0.017-19.73,0.026c-6.576-0.01-13.151-0.017-19.729-0.026
			c-4.437,1.614-7.145,5.422-6.776,9.069c0.217,2.167,1.577,4.818,4.249,6.021c0.626,0.283,3.289,1.37,5.915,0
			c0.283-0.148,2.93-1.583,3.152-4.433c0.041-0.5,0.15-2.89-1.771-4.232c-1.501-1.049-3.863-1.192-5.316,0.101
			c-0.896,0.796-1.76,2.416-0.991,3.828c0.665,1.222,2.268,1.766,3.468,1.437c0.2-0.056,0.875-0.25,1.303-0.882
			c0.028-0.043,0.68-1.041,0.131-2.041c-0.041-0.074-0.464-0.811-1.357-0.981c-0.709-0.137-1.735,0.083-1.979,0.78
			c-0.172,0.489,0.121,0.976,0.208,1.109c-0.029-0.721,0.313-1.325,0.808-1.487c0.382-0.124,0.784,0.038,0.938,0.101
			c0.148,0.06,0.525,0.213,0.757,0.605c0.232,0.397,0.233,0.908,0.025,1.285c-0.382,0.686-1.449,0.897-2.216,0.554
			c-0.732-0.329-1.055-1.1-1.043-1.738c0.018-0.922,0.73-1.462,0.836-1.538c0.881-0.644,1.917-0.323,2.059-0.277
			c0.765,0.251,1.149,0.825,1.302,1.059c0.107,0.157,0.782,1.209,0.391,2.292c-0.479,1.332-2.213,1.734-3.232,1.739
			c-0.316,0.001-1.941-0.037-2.971-1.311c-1.028-1.273-0.823-3.026-0.052-4.181c0.938-1.405,2.54-1.671,2.815-1.713
			c6.357,0,12.717,0,19.076,0c6.359,0,12.72,0,19.079,0c0.273,0.042,1.876,0.308,2.814,1.713c0.773,1.155,0.977,2.908-0.054,4.181
			c-1.028,1.273-2.653,1.311-2.97,1.311c-1.019-0.004-2.754-0.407-3.232-1.739c-0.389-1.082,0.285-2.134,0.392-2.292
			c0.155-0.233,0.535-0.808,1.303-1.059c0.143-0.046,1.18-0.367,2.06,0.277c0.102,0.076,0.815,0.615,0.833,1.538
			c0.013,0.637-0.309,1.409-1.042,1.738c-0.769,0.343-1.833,0.132-2.215-0.554c-0.21-0.377-0.207-0.888,0.026-1.285
			c0.228-0.392,0.607-0.545,0.756-0.605c0.155-0.063,0.556-0.226,0.938-0.101c0.494,0.162,0.835,0.766,0.808,1.487
			c0.085-0.133,0.379-0.62,0.209-1.109c-0.246-0.697-1.269-0.917-1.982-0.78c-0.893,0.17-1.313,0.907-1.355,0.981
			c-0.55,1,0.103,1.998,0.13,2.041c0.429,0.632,1.102,0.826,1.305,0.882c1.201,0.329,2.8-0.215,3.467-1.437
			c0.77-1.413-0.095-3.032-0.991-3.828c-1.453-1.293-3.814-1.15-5.316-0.101c-1.923,1.343-1.811,3.732-1.773,4.232
			c0.224,2.851,2.871,4.285,3.154,4.433c2.627,1.37,5.289,0.283,5.917,0c2.67-1.203,4.029-3.854,4.248-6.021
			C689.049,359.754,686.343,355.946,681.907,354.332z"/>
		<path d="M680.057,373.865h-34.876c-0.578,0-1.054-0.804-1.054-1.784l0,0c0-0.982,0.476-1.785,1.054-1.785h34.876
			c0.578,0,1.053,0.802,1.053,1.785l0,0C681.11,373.061,680.635,373.865,680.057,373.865z"/>
		<path d="M677.821,378.547h-30.664c-0.435,0-0.792-0.602-0.792-1.338l0,0c0-0.736,0.357-1.339,0.792-1.339h30.664
			c0.434,0,0.788,0.603,0.788,1.339l0,0C678.609,377.946,678.254,378.547,677.821,378.547z"/>
		<path d="M673.815,368.412h-23.857c-0.175,0-0.318-1.01-0.318-2.245l0,0c0-1.235,0.144-2.245,0.318-2.245h23.857
			c0.176,0,0.321,1.01,0.321,2.245l0,0C674.136,367.402,673.991,368.412,673.815,368.412z"/>
		<rect x="650.49" y="380.258" width="2.456" height="201.622"/>
		<rect x="654.175" y="380.258" width="2.455" height="201.622"/>
		<rect x="657.861" y="380.258" width="2.456" height="201.622"/>
		<rect x="661.544" y="380.258" width="2.456" height="201.622"/>
		<rect x="665.23" y="380.258" width="2.456" height="201.622"/>
		<rect x="668.916" y="380.258" width="2.456" height="201.622"/>
		<rect x="672.599" y="380.258" width="2.456" height="201.622"/>
		<rect x="676.198" y="380.258" width="1.228" height="201.622"/>
		<rect x="648.297" y="380.258" width="1.229" height="201.622"/>
		<rect x="643.822" y="585.745" width="37.552" height="6.541"/>
		<rect x="646.278" y="582.771" width="32.64" height="2.081"/>
	</g>
	<g>
		<path style="fill:#231F20;" d="M147.047,354.332c-6.577,0.009-13.153,0.017-19.73,0.026c-6.576-0.01-13.153-0.017-19.729-0.026
			c-4.437,1.614-7.144,5.422-6.776,9.069c0.218,2.167,1.578,4.818,4.248,6.021c0.626,0.283,3.289,1.37,5.916,0
			c0.284-0.148,2.93-1.583,3.153-4.433c0.04-0.5,0.149-2.89-1.773-4.232c-1.502-1.049-3.862-1.192-5.316,0.101
			c-0.896,0.796-1.759,2.416-0.991,3.828c0.665,1.222,2.265,1.766,3.466,1.437c0.203-0.056,0.876-0.25,1.304-0.882
			c0.029-0.043,0.68-1.041,0.131-2.041c-0.042-0.074-0.462-0.811-1.356-0.981c-0.711-0.137-1.736,0.083-1.981,0.78
			c-0.171,0.489,0.123,0.976,0.209,1.109c-0.028-0.721,0.313-1.325,0.808-1.487c0.383-0.124,0.783,0.038,0.938,0.101
			c0.147,0.06,0.526,0.213,0.756,0.605c0.233,0.397,0.235,0.908,0.026,1.285c-0.381,0.686-1.448,0.897-2.215,0.554
			c-0.734-0.329-1.056-1.1-1.043-1.738c0.018-0.922,0.73-1.462,0.834-1.538c0.881-0.644,1.919-0.323,2.059-0.277
			c0.767,0.251,1.148,0.825,1.303,1.059c0.105,0.157,0.781,1.209,0.392,2.292c-0.48,1.332-2.214,1.734-3.231,1.739
			c-0.318,0.001-1.943-0.037-2.972-1.311c-1.028-1.273-0.824-3.026-0.053-4.181c0.939-1.405,2.542-1.671,2.815-1.713
			c6.359,0,12.719,0,19.078,0c6.359,0,12.719,0,19.079,0c0.272,0.042,1.875,0.308,2.813,1.713c0.773,1.155,0.977,2.908-0.051,4.181
			c-1.029,1.273-2.655,1.311-2.972,1.311c-1.018-0.004-2.753-0.407-3.231-1.739c-0.389-1.082,0.285-2.134,0.39-2.292
			c0.156-0.233,0.537-0.808,1.304-1.059c0.141-0.046,1.178-0.367,2.059,0.277c0.104,0.076,0.816,0.615,0.834,1.538
			c0.012,0.637-0.31,1.409-1.042,1.738c-0.768,0.343-1.835,0.132-2.215-0.554c-0.208-0.377-0.207-0.888,0.026-1.285
			c0.229-0.392,0.608-0.545,0.756-0.605c0.155-0.063,0.557-0.226,0.938-0.101c0.496,0.162,0.836,0.766,0.808,1.487
			c0.086-0.133,0.379-0.62,0.208-1.109c-0.245-0.697-1.27-0.917-1.98-0.78c-0.893,0.17-1.315,0.907-1.356,0.981
			c-0.549,1,0.102,1.998,0.131,2.041c0.427,0.632,1.102,0.826,1.303,0.882c1.201,0.329,2.802-0.215,3.467-1.437
			c0.768-1.413-0.095-3.032-0.991-3.828c-1.454-1.293-3.814-1.15-5.317-0.101c-1.92,1.343-1.811,3.732-1.771,4.232
			c0.224,2.851,2.871,4.285,3.153,4.433c2.627,1.37,5.289,0.283,5.916,0c2.67-1.203,4.03-3.854,4.248-6.021
			C154.191,359.754,151.483,355.946,147.047,354.332z"/>
		<path d="M145.197,373.865h-34.874c-0.58,0-1.054-0.804-1.054-1.784l0,0c0-0.982,0.475-1.785,1.054-1.785h34.874
			c0.579,0,1.053,0.802,1.053,1.785l0,0C146.251,373.061,145.777,373.865,145.197,373.865z"/>
		<path d="M142.96,378.547h-30.663c-0.434,0-0.789-0.602-0.789-1.338l0,0c0-0.736,0.355-1.339,0.789-1.339h30.663
			c0.435,0,0.791,0.603,0.791,1.339l0,0C143.751,377.946,143.395,378.547,142.96,378.547z"/>
		<path d="M138.955,368.412H115.1c-0.177,0-0.321-1.01-0.321-2.245l0,0c0-1.235,0.144-2.245,0.321-2.245h23.855
			c0.177,0,0.321,1.01,0.321,2.245l0,0C139.276,367.402,139.132,368.412,138.955,368.412z"/>
		<rect x="115.631" y="380.258" width="2.456" height="201.622"/>
		<rect x="119.315" y="380.258" width="2.457" height="201.622"/>
		<rect x="123.001" y="380.258" width="2.457" height="201.622"/>
		<rect x="126.685" y="380.258" width="2.458" height="201.622"/>
		<rect x="130.371" y="380.258" width="2.455" height="201.622"/>
		<rect x="134.055" y="380.258" width="2.457" height="201.622"/>
		<rect x="137.74" y="380.258" width="2.458" height="201.622"/>
		<rect x="141.337" y="380.258" width="1.228" height="201.622"/>
		<rect x="113.438" y="380.258" width="1.228" height="201.622"/>
		<rect x="108.962" y="585.745" width="37.552" height="6.541"/>
		<rect x="111.419" y="582.771" width="32.638" height="2.081"/>
	</g>
	<g>
		<path style="fill:#231F20;" d="M289.948,354.332c-6.576,0.009-13.153,0.017-19.73,0.026c-6.576-0.01-13.153-0.017-19.728-0.026
			c-4.437,1.614-7.144,5.422-6.776,9.069c0.218,2.167,1.578,4.818,4.248,6.021c0.626,0.283,3.289,1.37,5.917,0
			c0.283-0.148,2.93-1.583,3.152-4.433c0.04-0.5,0.149-2.89-1.772-4.232c-1.503-1.049-3.863-1.192-5.316,0.101
			c-0.896,0.796-1.759,2.416-0.991,3.828c0.665,1.222,2.265,1.766,3.466,1.437c0.202-0.056,0.875-0.25,1.304-0.882
			c0.029-0.043,0.68-1.041,0.13-2.041c-0.042-0.074-0.462-0.811-1.356-0.981c-0.71-0.137-1.736,0.083-1.98,0.78
			c-0.171,0.489,0.123,0.976,0.208,1.109c-0.028-0.721,0.313-1.325,0.808-1.487c0.382-0.124,0.783,0.038,0.94,0.101
			c0.145,0.06,0.526,0.213,0.755,0.605c0.233,0.397,0.235,0.908,0.026,1.285c-0.381,0.686-1.447,0.897-2.215,0.554
			c-0.734-0.329-1.056-1.1-1.043-1.738c0.019-0.922,0.732-1.462,0.835-1.538c0.88-0.644,1.917-0.323,2.059-0.277
			c0.766,0.251,1.147,0.825,1.302,1.059c0.106,0.157,0.78,1.209,0.392,2.292c-0.48,1.332-2.214,1.734-3.232,1.739
			c-0.316,0.001-1.943-0.037-2.971-1.311c-1.029-1.273-0.825-3.026-0.053-4.181c0.938-1.405,2.542-1.671,2.815-1.713
			c6.359,0,12.719,0,19.078,0c6.359,0,12.719,0,19.079,0c0.273,0.042,1.875,0.308,2.814,1.713c0.772,1.155,0.976,2.908-0.052,4.181
			c-1.029,1.273-2.654,1.311-2.971,1.311c-1.018-0.004-2.753-0.407-3.232-1.739c-0.389-1.082,0.286-2.134,0.391-2.292
			c0.156-0.233,0.536-0.808,1.304-1.059c0.141-0.046,1.177-0.367,2.059,0.277c0.103,0.076,0.816,0.615,0.834,1.538
			c0.012,0.637-0.309,1.409-1.042,1.738c-0.768,0.343-1.835,0.132-2.215-0.554c-0.209-0.377-0.208-0.888,0.026-1.285
			c0.229-0.392,0.608-0.545,0.755-0.605c0.155-0.063,0.556-0.226,0.938-0.101c0.496,0.162,0.837,0.766,0.809,1.487
			c0.085-0.133,0.379-0.62,0.208-1.109c-0.244-0.697-1.27-0.917-1.981-0.78c-0.893,0.17-1.315,0.907-1.355,0.981
			c-0.549,1,0.102,1.998,0.13,2.041c0.428,0.632,1.102,0.826,1.303,0.882c1.201,0.329,2.801-0.215,3.466-1.437
			c0.77-1.413-0.094-3.032-0.99-3.828c-1.454-1.293-3.814-1.15-5.317-0.101c-1.921,1.343-1.811,3.732-1.773,4.232
			c0.225,2.851,2.871,4.285,3.154,4.433c2.626,1.37,5.29,0.283,5.916,0c2.671-1.203,4.03-3.854,4.249-6.021
			C297.093,359.754,294.385,355.946,289.948,354.332z"/>
		<path d="M288.1,373.865h-34.876c-0.579,0-1.053-0.804-1.053-1.784l0,0c0-0.982,0.474-1.785,1.053-1.785H288.1
			c0.579,0,1.053,0.802,1.053,1.785l0,0C289.152,373.061,288.679,373.865,288.1,373.865z"/>
		<path d="M285.862,378.547h-30.664c-0.434,0-0.789-0.602-0.789-1.338l0,0c0-0.736,0.355-1.339,0.789-1.339h30.664
			c0.434,0,0.79,0.603,0.79,1.339l0,0C286.652,377.946,286.296,378.547,285.862,378.547z"/>
		<path d="M281.857,368.412h-23.856c-0.177,0-0.321-1.01-0.321-2.245l0,0c0-1.235,0.145-2.245,0.321-2.245h23.856
			c0.176,0,0.32,1.01,0.32,2.245l0,0C282.177,367.402,282.033,368.412,281.857,368.412z"/>
		<rect x="258.532" y="380.258" width="2.457" height="201.622"/>
		<rect x="262.216" y="380.258" width="2.457" height="201.622"/>
		<rect x="265.901" y="380.258" width="2.457" height="201.622"/>
		<rect x="269.587" y="380.258" width="2.457" height="201.622"/>
		<rect x="273.272" y="380.258" width="2.456" height="201.622"/>
		<rect x="276.956" y="380.258" width="2.458" height="201.622"/>
		<rect x="280.641" y="380.258" width="2.457" height="201.622"/>
		<rect x="284.238" y="380.258" width="1.228" height="201.622"/>
		<rect x="256.338" y="380.258" width="1.228" height="201.622"/>
		<rect x="251.864" y="585.745" width="37.551" height="6.541"/>
		<rect x="254.32" y="582.771" width="32.639" height="2.081"/>
	</g>
	<g>
		<path style="fill:#231F20;" d="M218.497,354.332c-6.575,0.009-13.153,0.017-19.729,0.026c-6.576-0.01-13.153-0.017-19.729-0.026
			c-4.438,1.614-7.144,5.422-6.777,9.069c0.219,2.167,1.579,4.818,4.249,6.021c0.626,0.283,3.289,1.37,5.916,0
			c0.283-0.148,2.93-1.583,3.153-4.433c0.04-0.5,0.15-2.89-1.772-4.232c-1.501-1.049-3.862-1.192-5.315,0.101
			c-0.896,0.796-1.76,2.416-0.991,3.828c0.665,1.222,2.264,1.766,3.466,1.437c0.202-0.056,0.875-0.25,1.304-0.882
			c0.029-0.043,0.68-1.041,0.13-2.041c-0.041-0.074-0.462-0.811-1.355-0.981c-0.711-0.137-1.737,0.083-1.981,0.78
			c-0.171,0.489,0.123,0.976,0.208,1.109c-0.027-0.721,0.313-1.325,0.808-1.487c0.383-0.124,0.784,0.038,0.939,0.101
			c0.148,0.06,0.527,0.213,0.756,0.605c0.233,0.397,0.235,0.908,0.025,1.285c-0.381,0.686-1.447,0.897-2.215,0.554
			c-0.733-0.329-1.055-1.1-1.042-1.738c0.018-0.922,0.73-1.462,0.834-1.538c0.88-0.644,1.917-0.323,2.059-0.277
			c0.767,0.251,1.149,0.825,1.303,1.059c0.105,0.157,0.78,1.209,0.392,2.292c-0.48,1.332-2.214,1.734-3.232,1.739
			c-0.317,0.001-1.943-0.037-2.971-1.311c-1.029-1.273-0.825-3.026-0.053-4.181c0.938-1.405,2.542-1.671,2.815-1.713
			c6.359,0,12.719,0,19.078,0c6.359,0,12.719,0,19.078,0c0.273,0.042,1.876,0.308,2.814,1.713c0.773,1.155,0.977,2.908-0.052,4.181
			c-1.028,1.273-2.654,1.311-2.971,1.311c-1.017-0.004-2.753-0.407-3.232-1.739c-0.388-1.082,0.287-2.134,0.391-2.292
			c0.156-0.233,0.537-0.808,1.304-1.059c0.141-0.046,1.177-0.367,2.059,0.277c0.104,0.076,0.815,0.615,0.834,1.538
			c0.012,0.637-0.309,1.409-1.043,1.738c-0.768,0.343-1.834,0.132-2.215-0.554c-0.209-0.377-0.208-0.888,0.026-1.285
			c0.229-0.392,0.607-0.545,0.755-0.605c0.154-0.063,0.556-0.226,0.938-0.101c0.495,0.162,0.836,0.766,0.809,1.487
			c0.085-0.133,0.379-0.62,0.208-1.109c-0.245-0.697-1.271-0.917-1.981-0.78c-0.894,0.17-1.314,0.907-1.355,0.981
			c-0.549,1,0.101,1.998,0.13,2.041c0.428,0.632,1.102,0.826,1.303,0.882c1.201,0.329,2.802-0.215,3.467-1.437
			c0.769-1.413-0.095-3.032-0.991-3.828c-1.453-1.293-3.814-1.15-5.316-0.101c-1.92,1.343-1.811,3.732-1.772,4.232
			c0.223,2.851,2.871,4.285,3.153,4.433c2.627,1.37,5.289,0.283,5.916,0c2.671-1.203,4.03-3.854,4.248-6.021
			C225.641,359.754,222.935,355.946,218.497,354.332z"/>
		<path d="M216.648,373.865h-34.875c-0.58,0-1.054-0.804-1.054-1.784l0,0c0-0.982,0.475-1.785,1.054-1.785h34.875
			c0.579,0,1.053,0.802,1.053,1.785l0,0C217.701,373.061,217.227,373.865,216.648,373.865z"/>
		<path d="M214.411,378.547h-30.663c-0.435,0-0.79-0.602-0.79-1.338l0,0c0-0.736,0.355-1.339,0.79-1.339h30.663
			c0.435,0,0.791,0.603,0.791,1.339l0,0C215.201,377.946,214.845,378.547,214.411,378.547z"/>
		<path d="M210.406,368.412H186.55c-0.177,0-0.321-1.01-0.321-2.245l0,0c0-1.235,0.145-2.245,0.321-2.245h23.856
			c0.176,0,0.32,1.01,0.32,2.245l0,0C210.727,367.402,210.582,368.412,210.406,368.412z"/>
		<rect x="187.081" y="380.258" width="2.456" height="201.622"/>
		<rect x="190.766" y="380.258" width="2.457" height="201.622"/>
		<rect x="194.451" y="380.258" width="2.457" height="201.622"/>
		<rect x="198.136" y="380.258" width="2.457" height="201.622"/>
		<rect x="201.821" y="380.258" width="2.456" height="201.622"/>
		<rect x="205.505" y="380.258" width="2.458" height="201.622"/>
		<rect x="209.19" y="380.258" width="2.457" height="201.622"/>
		<rect x="212.788" y="380.258" width="1.228" height="201.622"/>
		<rect x="184.888" y="380.258" width="1.23" height="201.622"/>
		<rect x="180.413" y="585.745" width="37.552" height="6.541"/>
		<rect x="182.87" y="582.771" width="32.638" height="2.081"/>
	</g>
	<g>
		<path style="fill:#231F20;" d="M369.564,354.332c-6.575,0.009-13.152,0.017-19.729,0.026c-6.576-0.01-13.153-0.017-19.729-0.026
			c-4.437,1.614-7.144,5.422-6.776,9.069c0.218,2.167,1.579,4.818,4.248,6.021c0.626,0.283,3.289,1.37,5.917,0
			c0.283-0.148,2.93-1.583,3.152-4.433c0.041-0.5,0.15-2.89-1.772-4.232c-1.503-1.049-3.863-1.192-5.316,0.101
			c-0.896,0.796-1.759,2.416-0.991,3.828c0.665,1.222,2.265,1.766,3.466,1.437c0.202-0.056,0.875-0.25,1.304-0.882
			c0.029-0.043,0.68-1.041,0.13-2.041c-0.042-0.074-0.462-0.811-1.355-0.981c-0.711-0.137-1.736,0.083-1.98,0.78
			c-0.172,0.489,0.122,0.976,0.208,1.109c-0.028-0.721,0.313-1.325,0.807-1.487c0.382-0.124,0.784,0.038,0.94,0.101
			c0.146,0.06,0.526,0.213,0.755,0.605c0.233,0.397,0.235,0.908,0.026,1.285c-0.381,0.686-1.447,0.897-2.214,0.554
			c-0.734-0.329-1.056-1.1-1.043-1.738c0.018-0.922,0.731-1.462,0.835-1.538c0.879-0.644,1.917-0.323,2.058-0.277
			c0.766,0.251,1.148,0.825,1.302,1.059c0.106,0.157,0.781,1.209,0.392,2.292c-0.479,1.332-2.213,1.734-3.231,1.739
			c-0.317,0.001-1.943-0.037-2.972-1.311c-1.029-1.273-0.825-3.026-0.053-4.181c0.938-1.405,2.542-1.671,2.815-1.713
			c6.359,0,12.719,0,19.078,0c6.36,0,12.719,0,19.079,0c0.273,0.042,1.876,0.308,2.814,1.713c0.772,1.155,0.977,2.908-0.052,4.181
			c-1.029,1.273-2.654,1.311-2.971,1.311c-1.018-0.004-2.753-0.407-3.232-1.739c-0.389-1.082,0.286-2.134,0.39-2.292
			c0.156-0.233,0.537-0.808,1.304-1.059c0.141-0.046,1.178-0.367,2.059,0.277c0.103,0.076,0.816,0.615,0.834,1.538
			c0.012,0.637-0.309,1.409-1.042,1.738c-0.768,0.343-1.835,0.132-2.215-0.554c-0.209-0.377-0.207-0.888,0.026-1.285
			c0.229-0.392,0.608-0.545,0.755-0.605c0.155-0.063,0.556-0.226,0.938-0.101c0.496,0.162,0.836,0.766,0.809,1.487
			c0.085-0.133,0.379-0.62,0.208-1.109c-0.244-0.697-1.27-0.917-1.98-0.78c-0.894,0.17-1.315,0.907-1.355,0.981
			c-0.549,1,0.102,1.998,0.13,2.041c0.428,0.632,1.102,0.826,1.303,0.882c1.201,0.329,2.802-0.215,3.467-1.437
			c0.768-1.413-0.096-3.032-0.992-3.828c-1.453-1.293-3.813-1.15-5.317-0.101c-1.92,1.343-1.811,3.732-1.772,4.232
			c0.225,2.851,2.871,4.285,3.154,4.433c2.627,1.37,5.289,0.283,5.916,0c2.671-1.203,4.031-3.854,4.249-6.021
			C376.709,359.754,374.001,355.946,369.564,354.332z"/>
		<path d="M367.716,373.865h-34.874c-0.579,0-1.054-0.804-1.054-1.784l0,0c0-0.982,0.475-1.785,1.054-1.785h34.874
			c0.579,0,1.053,0.802,1.053,1.785l0,0C368.768,373.061,368.295,373.865,367.716,373.865z"/>
		<path d="M365.478,378.547h-30.664c-0.435,0-0.789-0.602-0.789-1.338l0,0c0-0.736,0.354-1.339,0.789-1.339h30.664
			c0.434,0,0.79,0.603,0.79,1.339l0,0C366.268,377.946,365.912,378.547,365.478,378.547z"/>
		<path d="M361.474,368.412h-23.856c-0.177,0-0.322-1.01-0.322-2.245l0,0c0-1.235,0.145-2.245,0.322-2.245h23.856
			c0.175,0,0.32,1.01,0.32,2.245l0,0C361.793,367.402,361.649,368.412,361.474,368.412z"/>
		<rect x="338.148" y="380.258" width="2.457" height="201.622"/>
		<rect x="341.832" y="380.258" width="2.457" height="201.622"/>
		<rect x="345.518" y="380.258" width="2.457" height="201.622"/>
		<rect x="349.203" y="380.258" width="2.457" height="201.622"/>
		<rect x="352.888" y="380.258" width="2.457" height="201.622"/>
		<rect x="356.573" y="380.258" width="2.457" height="201.622"/>
		<rect x="360.258" y="380.258" width="2.457" height="201.622"/>
		<rect x="363.855" y="380.258" width="1.227" height="201.622"/>
		<rect x="335.955" y="380.258" width="1.229" height="201.622"/>
		<rect x="331.48" y="585.745" width="37.552" height="6.541"/>
		<rect x="333.937" y="582.771" width="32.639" height="2.081"/>
	</g>
	<g>
		<path style="fill:#231F20;" d="M602.292,354.332c-6.578,0.009-13.154,0.017-19.732,0.026c-6.577-0.01-13.151-0.017-19.729-0.026
			c-4.435,1.614-7.146,5.422-6.777,9.069c0.218,2.167,1.577,4.818,4.249,6.021c0.626,0.283,3.29,1.37,5.915,0
			c0.283-0.148,2.932-1.583,3.154-4.433c0.039-0.5,0.148-2.89-1.772-4.232c-1.502-1.049-3.864-1.192-5.316,0.101
			c-0.896,0.796-1.759,2.416-0.992,3.828c0.667,1.222,2.267,1.766,3.468,1.437c0.201-0.056,0.875-0.25,1.304-0.882
			c0.027-0.043,0.68-1.041,0.13-2.041c-0.041-0.074-0.464-0.811-1.355-0.981c-0.709-0.137-1.736,0.083-1.981,0.78
			c-0.17,0.489,0.122,0.976,0.21,1.109c-0.029-0.721,0.31-1.325,0.808-1.487c0.38-0.124,0.782,0.038,0.936,0.101
			c0.148,0.06,0.525,0.213,0.758,0.605c0.232,0.397,0.233,0.908,0.026,1.285c-0.383,0.686-1.45,0.897-2.218,0.554
			c-0.731-0.329-1.056-1.1-1.042-1.738c0.017-0.922,0.732-1.462,0.835-1.538c0.882-0.644,1.918-0.323,2.06-0.277
			c0.766,0.251,1.148,0.825,1.302,1.059c0.106,0.157,0.781,1.209,0.39,2.292c-0.478,1.332-2.212,1.734-3.232,1.739
			c-0.316,0.001-1.941-0.037-2.97-1.311c-1.029-1.273-0.824-3.026-0.052-4.181c0.937-1.405,2.539-1.671,2.815-1.713
			c6.358,0,12.719,0,19.077,0c6.36,0,12.719,0,19.079,0c0.272,0.042,1.876,0.308,2.815,1.713c0.771,1.155,0.977,2.908-0.054,4.181
			c-1.029,1.273-2.655,1.311-2.972,1.311c-1.019-0.004-2.752-0.407-3.231-1.739c-0.39-1.082,0.284-2.134,0.389-2.292
			c0.157-0.233,0.537-0.808,1.305-1.059c0.141-0.046,1.179-0.367,2.06,0.277c0.103,0.076,0.815,0.615,0.835,1.538
			c0.011,0.637-0.31,1.409-1.045,1.738c-0.767,0.343-1.833,0.132-2.215-0.554c-0.208-0.377-0.207-0.888,0.026-1.285
			c0.23-0.392,0.607-0.545,0.755-0.605c0.157-0.063,0.558-0.226,0.939-0.101c0.494,0.162,0.836,0.766,0.808,1.487
			c0.086-0.133,0.379-0.62,0.21-1.109c-0.245-0.697-1.271-0.917-1.982-0.78c-0.893,0.17-1.314,0.907-1.356,0.981
			c-0.551,1,0.102,1.998,0.129,2.041c0.429,0.632,1.104,0.826,1.305,0.882c1.203,0.329,2.801-0.215,3.468-1.437
			c0.769-1.413-0.095-3.032-0.992-3.828c-1.453-1.293-3.813-1.15-5.316-0.101c-1.921,1.343-1.81,3.732-1.772,4.232
			c0.224,2.851,2.871,4.285,3.153,4.433c2.629,1.37,5.29,0.283,5.918,0c2.669-1.203,4.028-3.854,4.247-6.021
			C609.434,359.754,606.726,355.946,602.292,354.332z"/>
		<path d="M600.44,373.865h-34.875c-0.579,0-1.053-0.804-1.053-1.784l0,0c0-0.982,0.474-1.785,1.053-1.785h34.875
			c0.578,0,1.054,0.802,1.054,1.785l0,0C601.494,373.061,601.018,373.865,600.44,373.865z"/>
		<path d="M598.204,378.547h-30.664c-0.434,0-0.791-0.602-0.791-1.338l0,0c0-0.736,0.357-1.339,0.791-1.339h30.664
			c0.435,0,0.79,0.603,0.79,1.339l0,0C598.994,377.946,598.639,378.547,598.204,378.547z"/>
		<path d="M594.2,368.412h-23.858c-0.176,0-0.318-1.01-0.318-2.245l0,0c0-1.235,0.143-2.245,0.318-2.245H594.2
			c0.174,0,0.32,1.01,0.32,2.245l0,0C594.52,367.402,594.373,368.412,594.2,368.412z"/>
		<rect x="570.873" y="380.258" width="2.457" height="201.622"/>
		<rect x="574.558" y="380.258" width="2.455" height="201.622"/>
		<rect x="578.244" y="380.258" width="2.456" height="201.622"/>
		<rect x="581.928" y="380.258" width="2.457" height="201.622"/>
		<rect x="585.613" y="380.258" width="2.458" height="201.622"/>
		<rect x="589.298" y="380.258" width="2.456" height="201.622"/>
		<rect x="592.984" y="380.258" width="2.455" height="201.622"/>
		<rect x="596.581" y="380.258" width="1.229" height="201.622"/>
		<rect x="568.68" y="380.258" width="1.229" height="201.622"/>
		<rect x="564.205" y="585.745" width="37.553" height="6.541"/>
		<rect x="566.662" y="582.771" width="32.639" height="2.081"/>
	</g>
	<g>
		<path style="fill:#231F20;" d="M526.757,354.332c-6.577,0.009-13.154,0.017-19.731,0.026c-6.576-0.01-13.151-0.017-19.728-0.026
			c-4.436,1.614-7.145,5.422-6.775,9.069c0.218,2.167,1.577,4.818,4.248,6.021c0.626,0.283,3.289,1.37,5.915,0
			c0.283-0.148,2.93-1.583,3.154-4.433c0.039-0.5,0.15-2.89-1.772-4.232c-1.501-1.049-3.864-1.192-5.317,0.101
			c-0.896,0.796-1.758,2.416-0.99,3.828c0.666,1.222,2.267,1.766,3.466,1.437c0.201-0.056,0.876-0.25,1.304-0.882
			c0.028-0.043,0.681-1.041,0.13-2.041c-0.039-0.074-0.463-0.811-1.355-0.981c-0.71-0.137-1.736,0.083-1.979,0.78
			c-0.172,0.489,0.121,0.976,0.21,1.109c-0.031-0.721,0.31-1.325,0.807-1.487c0.381-0.124,0.783,0.038,0.938,0.101
			c0.146,0.06,0.526,0.213,0.757,0.605c0.231,0.397,0.234,0.908,0.026,1.285c-0.383,0.686-1.45,0.897-2.217,0.554
			c-0.731-0.329-1.055-1.1-1.043-1.738c0.017-0.922,0.732-1.462,0.835-1.538c0.882-0.644,1.918-0.323,2.06-0.277
			c0.766,0.251,1.148,0.825,1.302,1.059c0.107,0.157,0.782,1.209,0.392,2.292c-0.479,1.332-2.213,1.734-3.231,1.739
			c-0.317,0.001-1.941-0.037-2.971-1.311c-1.028-1.273-0.823-3.026-0.052-4.181c0.937-1.405,2.539-1.671,2.814-1.713
			c6.357,0,12.717,0,19.076,0c6.36,0,12.72,0,19.079,0c0.273,0.042,1.876,0.308,2.814,1.713c0.773,1.155,0.977,2.908-0.054,4.181
			c-1.029,1.273-2.652,1.311-2.97,1.311c-1.019-0.004-2.754-0.407-3.232-1.739c-0.389-1.082,0.285-2.134,0.391-2.292
			c0.155-0.233,0.536-0.808,1.304-1.059c0.142-0.046,1.178-0.367,2.06,0.277c0.101,0.076,0.815,0.615,0.833,1.538
			c0.012,0.637-0.31,1.409-1.042,1.738c-0.768,0.343-1.835,0.132-2.215-0.554c-0.211-0.377-0.207-0.888,0.025-1.285
			c0.229-0.392,0.608-0.545,0.756-0.605c0.155-0.063,0.556-0.226,0.938-0.101c0.495,0.162,0.836,0.766,0.808,1.487
			c0.086-0.133,0.379-0.62,0.209-1.109c-0.245-0.697-1.27-0.917-1.98-0.78c-0.895,0.17-1.315,0.907-1.357,0.981
			c-0.55,1,0.102,1.998,0.13,2.041c0.428,0.632,1.103,0.826,1.304,0.882c1.201,0.329,2.801-0.215,3.466-1.437
			c0.77-1.413-0.092-3.032-0.989-3.828c-1.454-1.293-3.815-1.15-5.318-0.101c-1.922,1.343-1.81,3.732-1.772,4.232
			c0.225,2.851,2.872,4.285,3.154,4.433c2.628,1.37,5.289,0.283,5.918,0c2.669-1.203,4.028-3.854,4.247-6.021
			C533.9,359.754,531.193,355.946,526.757,354.332z"/>
		<path d="M524.907,373.865h-34.876c-0.577,0-1.053-0.804-1.053-1.784l0,0c0-0.982,0.476-1.785,1.053-1.785h34.876
			c0.578,0,1.053,0.802,1.053,1.785l0,0C525.959,373.061,525.485,373.865,524.907,373.865z"/>
		<path d="M522.67,378.547h-30.663c-0.435,0-0.792-0.602-0.792-1.338l0,0c0-0.736,0.357-1.339,0.792-1.339h30.663
			c0.435,0,0.789,0.603,0.789,1.339l0,0C523.459,377.946,523.105,378.547,522.67,378.547z"/>
		<path d="M518.666,368.412h-23.857c-0.176,0-0.319-1.01-0.319-2.245l0,0c0-1.235,0.143-2.245,0.319-2.245h23.857
			c0.175,0,0.321,1.01,0.321,2.245l0,0C518.987,367.402,518.84,368.412,518.666,368.412z"/>
		<rect x="495.339" y="380.258" width="2.456" height="201.622"/>
		<rect x="499.024" y="380.258" width="2.456" height="201.622"/>
		<rect x="502.71" y="380.258" width="2.455" height="201.622"/>
		<rect x="506.394" y="380.258" width="2.456" height="201.622"/>
		<rect x="510.079" y="380.258" width="2.458" height="201.622"/>
		<rect x="513.765" y="380.258" width="2.455" height="201.622"/>
		<rect x="517.449" y="380.258" width="2.456" height="201.622"/>
		<rect x="521.048" y="380.258" width="1.228" height="201.622"/>
		<rect x="493.147" y="380.258" width="1.228" height="201.622"/>
		<rect x="488.671" y="585.745" width="37.551" height="6.541"/>
		<rect x="491.127" y="582.771" width="32.64" height="2.081"/>
	</g>
	<g>
		<path style="fill:#231F20;" d="M447.141,354.332c-6.577,0.009-13.154,0.017-19.731,0.026c-6.576-0.01-13.151-0.017-19.729-0.026
			c-4.435,1.614-7.145,5.422-6.776,9.069c0.218,2.167,1.577,4.818,4.248,6.021c0.627,0.283,3.29,1.37,5.916,0
			c0.283-0.148,2.93-1.583,3.152-4.433c0.041-0.5,0.151-2.89-1.771-4.232c-1.502-1.049-3.864-1.192-5.317,0.101
			c-0.896,0.796-1.758,2.416-0.991,3.828c0.666,1.222,2.268,1.766,3.467,1.437c0.203-0.056,0.875-0.25,1.304-0.882
			c0.028-0.043,0.681-1.041,0.13-2.041c-0.039-0.074-0.463-0.811-1.357-0.981c-0.709-0.137-1.735,0.083-1.979,0.78
			c-0.172,0.489,0.121,0.976,0.21,1.109c-0.031-0.721,0.31-1.325,0.807-1.487c0.381-0.124,0.783,0.038,0.938,0.101
			c0.147,0.06,0.526,0.213,0.757,0.605c0.232,0.397,0.234,0.908,0.025,1.285c-0.382,0.686-1.449,0.897-2.216,0.554
			c-0.731-0.329-1.055-1.1-1.043-1.738c0.018-0.922,0.733-1.462,0.835-1.538c0.882-0.644,1.918-0.323,2.06-0.277
			c0.766,0.251,1.148,0.825,1.302,1.059c0.107,0.157,0.782,1.209,0.392,2.292c-0.479,1.332-2.213,1.734-3.231,1.739
			c-0.317,0.001-1.943-0.037-2.971-1.311c-1.029-1.273-0.823-3.026-0.052-4.181c0.936-1.405,2.539-1.671,2.815-1.713
			c6.357,0,12.717,0,19.076,0c6.359,0,12.72,0,19.079,0c0.273,0.042,1.877,0.308,2.815,1.713c0.771,1.155,0.976,2.908-0.055,4.181
			c-1.028,1.273-2.653,1.311-2.971,1.311c-1.019-0.004-2.753-0.407-3.231-1.739c-0.389-1.082,0.285-2.134,0.392-2.292
			c0.155-0.233,0.536-0.808,1.304-1.059c0.142-0.046,1.178-0.367,2.059,0.277c0.101,0.076,0.816,0.615,0.833,1.538
			c0.012,0.637-0.31,1.409-1.043,1.738c-0.768,0.343-1.834,0.132-2.215-0.554c-0.21-0.377-0.208-0.888,0.026-1.285
			c0.229-0.392,0.607-0.545,0.755-0.605c0.156-0.063,0.557-0.226,0.939-0.101c0.494,0.162,0.836,0.766,0.807,1.487
			c0.087-0.133,0.38-0.62,0.21-1.109c-0.245-0.697-1.27-0.917-1.981-0.78c-0.894,0.17-1.315,0.907-1.355,0.981
			c-0.551,1,0.102,1.998,0.13,2.041c0.428,0.632,1.102,0.826,1.304,0.882c1.201,0.329,2.801-0.215,3.467-1.437
			c0.77-1.413-0.094-3.032-0.991-3.828c-1.454-1.293-3.813-1.15-5.317-0.101c-1.922,1.343-1.81,3.732-1.772,4.232
			c0.225,2.851,2.871,4.285,3.154,4.433c2.628,1.37,5.289,0.283,5.917,0c2.669-1.203,4.029-3.854,4.248-6.021
			C454.284,359.754,451.576,355.946,447.141,354.332z"/>
		<path d="M445.29,373.865h-34.876c-0.577,0-1.053-0.804-1.053-1.784l0,0c0-0.982,0.476-1.785,1.053-1.785h34.876
			c0.578,0,1.053,0.802,1.053,1.785l0,0C446.343,373.061,445.869,373.865,445.29,373.865z"/>
		<path d="M443.053,378.547H412.39c-0.435,0-0.791-0.602-0.791-1.338l0,0c0-0.736,0.357-1.339,0.791-1.339h30.663
			c0.436,0,0.79,0.603,0.79,1.339l0,0C443.843,377.946,443.489,378.547,443.053,378.547z"/>
		<path d="M439.048,368.412h-23.856c-0.176,0-0.319-1.01-0.319-2.245l0,0c0-1.235,0.144-2.245,0.319-2.245h23.856
			c0.175,0,0.322,1.01,0.322,2.245l0,0C439.371,367.402,439.223,368.412,439.048,368.412z"/>
		<rect x="415.723" y="380.258" width="2.456" height="201.622"/>
		<rect x="419.408" y="380.258" width="2.458" height="201.622"/>
		<rect x="423.094" y="380.258" width="2.455" height="201.622"/>
		<rect x="426.778" y="380.258" width="2.456" height="201.622"/>
		<rect x="430.462" y="380.258" width="2.458" height="201.622"/>
		<rect x="434.149" y="380.258" width="2.455" height="201.622"/>
		<rect x="437.832" y="380.258" width="2.456" height="201.622"/>
		<rect x="441.431" y="380.258" width="1.228" height="201.622"/>
		<rect x="413.531" y="380.258" width="1.227" height="201.622"/>
		<rect x="409.054" y="585.745" width="37.553" height="6.541"/>
		<rect x="411.511" y="582.771" width="32.639" height="2.081"/>
	</g>
	<rect x="686.045" y="315.706" style="fill:#231F20;" width="1.529" height="19.733"/>
	<rect x="679.918" y="315.706" style="fill:#231F20;" width="1.532" height="19.733"/>
	<rect x="673.794" y="315.706" style="fill:#231F20;" width="1.532" height="19.733"/>
	<rect x="655.423" y="315.706" style="fill:#231F20;" width="1.529" height="19.733"/>
	<rect x="649.297" y="315.706" style="fill:#231F20;" width="1.531" height="19.733"/>
	<rect x="643.173" y="315.706" style="fill:#231F20;" width="1.531" height="19.733"/>
	<rect x="626.842" y="315.706" style="fill:#231F20;" width="1.53" height="19.733"/>
	<rect x="620.717" y="315.706" style="fill:#231F20;" width="1.531" height="19.733"/>
	<rect x="614.592" y="315.706" style="fill:#231F20;" width="1.532" height="19.733"/>
	<rect x="596.221" y="315.706" style="fill:#231F20;" width="1.529" height="19.733"/>
	<rect x="590.095" y="315.706" style="fill:#231F20;" width="1.531" height="19.733"/>
	<rect x="583.971" y="315.706" style="fill:#231F20;" width="1.531" height="19.733"/>
	<rect x="567.64" y="315.706" style="fill:#231F20;" width="1.53" height="19.733"/>
	<rect x="561.515" y="315.706" style="fill:#231F20;" width="1.531" height="19.733"/>
	<rect x="555.391" y="315.706" style="fill:#231F20;" width="1.531" height="19.733"/>
	<rect x="537.019" y="315.706" style="fill:#231F20;" width="1.529" height="19.733"/>
	<rect x="530.893" y="315.706" style="fill:#231F20;" width="1.531" height="19.733"/>
	<rect x="524.769" y="315.706" style="fill:#231F20;" width="1.531" height="19.733"/>
	<rect x="508.438" y="315.706" style="fill:#231F20;" width="1.53" height="19.733"/>
	<rect x="502.314" y="315.706" style="fill:#231F20;" width="1.531" height="19.733"/>
	<rect x="496.19" y="315.706" style="fill:#231F20;" width="1.53" height="19.733"/>
	<rect x="477.816" y="315.706" style="fill:#231F20;" width="1.532" height="19.733"/>
	<rect x="471.692" y="315.706" style="fill:#231F20;" width="1.531" height="19.733"/>
	<rect x="465.568" y="315.706" style="fill:#231F20;" width="1.53" height="19.733"/>
	<rect x="451.278" y="315.706" style="fill:#231F20;" width="1.53" height="19.733"/>
	<rect x="445.153" y="315.706" style="fill:#231F20;" width="1.531" height="19.733"/>
	<rect x="439.029" y="315.706" style="fill:#231F20;" width="1.531" height="19.733"/>
	<rect x="420.656" y="315.706" style="fill:#231F20;" width="1.53" height="19.733"/>
	<rect x="414.531" y="315.706" style="fill:#231F20;" width="1.531" height="19.733"/>
	<rect x="408.408" y="315.706" style="fill:#231F20;" width="1.53" height="19.733"/>
	<rect x="392.076" y="315.706" style="fill:#231F20;" width="1.531" height="19.733"/>
	<rect x="385.951" y="315.706" style="fill:#231F20;" width="1.531" height="19.733"/>
	<rect x="379.827" y="315.706" style="fill:#231F20;" width="1.531" height="19.733"/>
	<rect x="361.454" y="315.706" style="fill:#231F20;" width="1.53" height="19.733"/>
	<rect x="355.329" y="315.706" style="fill:#231F20;" width="1.531" height="19.733"/>
	<rect x="349.205" y="315.706" style="fill:#231F20;" width="1.532" height="19.733"/>
	<rect x="332.874" y="315.706" style="fill:#231F20;" width="1.531" height="19.733"/>
	<rect x="326.75" y="315.706" style="fill:#231F20;" width="1.531" height="19.733"/>
	<rect x="320.625" y="315.706" style="fill:#231F20;" width="1.531" height="19.733"/>
	<rect x="302.252" y="315.706" style="fill:#231F20;" width="1.532" height="19.733"/>
	<rect x="296.128" y="315.706" style="fill:#231F20;" width="1.53" height="19.733"/>
	<rect x="290.003" y="315.706" style="fill:#231F20;" width="1.532" height="19.733"/>
	<rect x="273.672" y="315.706" style="fill:#231F20;" width="1.531" height="19.733"/>
	<rect x="267.547" y="315.706" style="fill:#231F20;" width="1.531" height="19.733"/>
	<rect x="261.423" y="315.706" style="fill:#231F20;" width="1.531" height="19.733"/>
	<rect x="243.05" y="315.706" style="fill:#231F20;" width="1.531" height="19.733"/>
	<rect x="236.926" y="315.706" style="fill:#231F20;" width="1.531" height="19.733"/>
	<rect x="230.801" y="315.706" style="fill:#231F20;" width="1.531" height="19.733"/>
	<rect x="214.469" y="315.706" style="fill:#231F20;" width="1.532" height="19.733"/>
	<rect x="208.346" y="315.706" style="fill:#231F20;" width="1.53" height="19.733"/>
	<rect x="202.22" y="315.706" style="fill:#231F20;" width="1.532" height="19.733"/>
	<rect x="183.848" y="315.706" style="fill:#231F20;" width="1.531" height="19.733"/>
	<rect x="177.724" y="315.706" style="fill:#231F20;" width="1.531" height="19.733"/>
	<rect x="171.599" y="315.706" style="fill:#231F20;" width="1.531" height="19.733"/>
	<rect x="155.267" y="315.706" style="fill:#231F20;" width="1.532" height="19.733"/>
	<rect x="149.143" y="315.706" style="fill:#231F20;" width="1.531" height="19.733"/>
	<rect x="143.018" y="315.706" style="fill:#231F20;" width="1.531" height="19.733"/>
	<rect x="124.646" y="315.706" style="fill:#231F20;" width="1.531" height="19.733"/>
	<rect x="118.522" y="315.706" style="fill:#231F20;" width="1.53" height="19.733"/>
	<rect x="112.397" y="315.706" style="fill:#231F20;" width="1.531" height="19.733"/>
	<rect x="96.065" y="315.706" style="fill:#231F20;" width="1.531" height="19.733"/>
	<rect x="89.941" y="315.706" style="fill:#231F20;" width="1.532" height="19.733"/>
	<path style="fill:#231F20;" d="M396.498,214.654c45.084,12.419,90.164,24.837,135.247,37.256
		c-87.271-0.341-174.544-0.681-261.816-1.021C312.118,238.811,354.309,226.733,396.498,214.654z"/>
</g>
</svg>
